<svg width="24" height="20" viewBox="0 0 24 20" fill="none" xmlns="http://www.w3.org/2000/svg">
<path d="M13.3627 6.00134V1.66668C13.3627 1.11734 13.8093 0.666678 14.3653 0.666678C14.616 0.666678 14.8653 0.761344 15.056 0.941344C17.4227 3.18801 21.6493 7.19734 23.584 9.03334C23.8507 9.28534 24 9.63601 24 10C24 10.3653 23.8507 10.7147 23.584 10.9667C21.6493 12.8027 17.4227 16.8133 15.056 19.0573C14.8653 19.2387 14.616 19.3333 14.3653 19.3333C13.8093 19.3333 13.3627 18.884 13.3627 18.3333V13.9987L1.336 13.9987C0.628 13.9987 -7.15256e-07 13.372 -7.15256e-07 12.6653V7.33468C-7.15256e-07 6.62801 0.628 6.00134 1.336 6.00134L13.3627 6.00134Z" fill="#F4F4F4"/>
</svg>
