<svg width="32" height="34" viewBox="0 0 32 34" fill="none" xmlns="http://www.w3.org/2000/svg">
<path fill-rule="evenodd" clip-rule="evenodd" d="M24.4292 34H7.57085V30.5773C7.57085 28.4835 7.25919 28.1718 6.6656 27.1136C4.61569 23.4572 1.73844 18.3005 0.586688 16.1103C0.277854 15.5238 0.469104 14.7999 1.02585 14.4415H1.02727C1.61377 14.0647 2.38585 14.1667 2.85619 14.6809C4.14394 16.0891 6.83135 18.8955 9.1391 21.2897C10.8689 23.0874 11.0984 24.0097 15.9037 24.0677C20.7076 24.1258 21.0249 23.1979 22.8609 21.2897C25.1687 18.8955 27.8561 16.0891 29.1439 14.6809C29.6142 14.1667 30.3863 14.0647 30.9728 14.4415C31.3468 14.6823 31.5579 15.0875 31.5607 15.5068C31.5621 15.7108 31.5154 15.9191 31.4134 16.1103C30.2616 18.3005 27.3844 23.4572 25.3344 27.1136C24.7409 28.1718 24.4292 28.3503 24.4292 30.5773V34ZM16 8.5C19.519 8.5 22.375 11.356 22.375 14.875C22.375 18.394 19.519 21.25 16 21.25C12.481 21.25 9.62502 18.394 9.62502 14.875C9.62502 11.356 12.481 8.5 16 8.5ZM14.0861 0.9775L12.7247 0L7.54394 7.2165C5.87227 4.658 2.64652 3.98225 0.983354 6.2985C0.612188 6.817 0.437938 7.412 0.435104 8.00842C0.429438 9.05817 0.949354 10.1093 1.83335 10.7454C3.48235 11.9283 6.03802 12.1805 7.56519 10.0583L14.0861 0.9775ZM26.37 0L28.0714 3.14075L31.5834 3.78817L29.1226 6.37642L29.5915 9.91667L26.37 8.37533L23.1471 9.91667L23.6174 6.37642L21.1567 3.78817L24.6686 3.14075L26.37 0Z" fill="#1A6333"/>
</svg>
