<svg width="100" height="100" viewBox="0 0 100 100" fill="none" xmlns="http://www.w3.org/2000/svg">
<path d="M75 0C61.8833 0 50 10.6375 50 23.7583C50 43.2667 69.9292 45.3292 75 75C80.0708 45.3292 100 43.2667 100 23.7583C100 10.6375 88.1167 0 75 0ZM75 33.3333C70.3958 33.3333 66.6667 29.6042 66.6667 25C66.6667 20.3958 70.3958 16.6667 75 16.6667C79.6042 16.6667 83.3333 20.3958 83.3333 25C83.3333 29.6042 79.6042 33.3333 75 33.3333ZM25 20.8333C16.2542 20.8333 8.33333 27.925 8.33333 36.6708C8.33333 49.675 21.6167 51.05 25 70.8333C28.3833 51.05 41.6667 49.675 41.6667 36.6708C41.6667 27.925 33.7458 20.8333 25 20.8333ZM25 43.0542C21.9292 43.0542 19.4458 40.5667 19.4458 37.5C19.4458 34.4333 21.9292 31.9458 25 31.9458C28.0708 31.9458 30.5542 34.4292 30.5542 37.5C30.5542 40.5708 28.0708 43.0542 25 43.0542ZM50 67.1167L36.6042 62.625C38.125 59.9833 39.8417 57.925 41.7958 55.5958L50 58.3333L58 55.6667C59.6167 57.8375 61.1417 60.2208 62.5042 62.9583L50 67.1167ZM100 100L72.0542 89.8875L50 100L26.7458 89.8875L0 100L15.0833 66.0667C16.3292 69.2333 17.3917 73.4667 17.5667 80.9958L15.7208 85.1458L26.9667 80.8917L47.0042 89.6042L50.1333 74.0833L53.125 89.3958L71.6833 80.8875L84.5958 85.5583L82.675 81.1625C82.7833 79.5292 82.9583 77.9125 83.2208 76.3958C83.8208 72.8958 84.6583 69.8792 85.6583 67.1792L100 100Z" fill="#15275F"/>
</svg>
