<svg width="100" height="50" viewBox="0 0 100 50" fill="none" xmlns="http://www.w3.org/2000/svg">
<path d="M74.9875 50H25.0083L25 47.4042C25 42.1583 25.4167 39.1292 31.6167 37.6958C38.6333 36.075 45.55 34.6292 42.2208 28.4917C32.3625 10.3125 39.4125 0 49.9958 0C60.375 0 67.6042 9.92917 57.7708 28.4958C54.5417 34.5958 61.2125 36.0458 68.375 37.7C74.5833 39.1333 74.9958 42.1667 74.9958 47.4208L74.9875 50ZM95.0333 40.775C89.6583 39.5333 84.6583 38.4458 87.0792 33.8708C94.45 19.9458 89.0333 12.5 81.2458 12.5C75.975 12.5 71.8792 15.9042 71.8792 22.1833C71.8792 38.4458 81.3292 29.5583 81.2375 50H99.9917L100 48.0708C100 44.1292 99.6917 41.85 95.0333 40.775ZM0.00833333 50H18.7625C18.675 29.5583 28.1208 38.45 28.1208 22.1833C28.1208 15.9042 24.025 12.5 18.7542 12.5C10.9667 12.5 5.55 19.9458 12.925 33.8708C15.3458 38.45 10.3458 39.5333 4.97083 40.775C0.308333 41.85 0 44.1292 0 48.0708L0.00833333 50Z" fill="#15275A"/>
</svg>
