<svg width="30" height="20" viewBox="0 0 30 20" fill="none" xmlns="http://www.w3.org/2000/svg">
<path d="M18.75 10C18.75 12.0675 17.0675 13.75 15 13.75C12.9325 13.75 11.25 12.0675 11.25 10C11.25 7.9325 12.9325 6.25 15 6.25C17.0675 6.25 18.75 7.9325 18.75 10ZM30 9.43875C30 9.43875 24.685 20 15.0188 20C6.04375 20 0 9.43875 0 9.43875C0 9.43875 5.5575 0 15.0188 0C24.6362 0 30 9.43875 30 9.43875ZM21.25 10C21.25 6.55375 18.4463 3.75 15 3.75C11.5538 3.75 8.75 6.55375 8.75 10C8.75 13.4462 11.5538 16.25 15 16.25C18.4463 16.25 21.25 13.4462 21.25 10Z" fill="#5F9BCE"/>
</svg>
