<svg width="34" height="32" viewBox="0 0 34 32" fill="none" xmlns="http://www.w3.org/2000/svg">
<path d="M5.63692 20.3137C3.55725 21.6992 2.56558 23.5196 2.47633 25.9166H0C0.09775 22.5931 1.55833 19.9865 4.46675 18.1292L5.63692 20.3137ZM27.3969 0.416626C24.7733 0.416626 22.8664 1.78513 21.5347 4.12688L26.5568 13.5024C31.3735 13.8169 34 10.4565 34 7.02113C34 3.34063 31.0278 0.416626 27.3969 0.416626ZM6.33533 15.6146L8.54108 19.7315L23.4713 13.7404L19.6237 6.55788L6.33533 15.6146ZM13.0858 20.9597C13.9825 21.8366 14.1681 23.2944 14.1681 24.5835V31.5833H17V24.3625C17 21.8465 17.9378 20.0785 19.4579 18.4026L13.0858 20.9597Z" fill="#1A6333"/>
</svg>
