<svg width="34" height="34" viewBox="0 0 34 34" fill="none" xmlns="http://www.w3.org/2000/svg">
<path d="M5.66685 30.9288C12.1651 31.4671 9.83752 24.5637 15.8499 24.5L18.4537 26.6731C19.1025 34.5186 9.50744 36.2682 5.66685 30.9288ZM25.5923 20.8492C27.6139 17.6773 33.8755 7.03814 33.8755 7.03814C34.3742 6.15556 33.2664 5.23472 32.4929 5.88639C32.4929 5.88639 23.1825 13.9812 20.4356 16.5468C18.2653 18.5755 18.2554 19.502 17.5527 22.8467L19.9327 24.8301C23.0876 23.5338 23.9957 23.3581 25.5923 20.8492ZM8.59369 26.3402C9.53719 24.7337 11.07 22.1228 14.8936 21.7191C15.5084 18.7625 15.7535 17.0441 18.5019 14.4771C20.4469 12.6609 25.4974 8.23097 28.4483 5.65264C27.0316 2.52464 22.5819 -0.0466107 16.8628 0.00013931C7.47877 0.078056 -0.0748946 7.74222 0.000188718 17.1305C0.032772 21.2544 1.53161 25.0227 3.99519 27.9467C6.28735 28.5545 7.36119 28.4397 8.59369 26.3402ZM18.4424 3.90731C20.0035 3.89881 21.2828 5.15539 21.2984 6.71656C21.304 8.27914 20.0489 9.56264 18.4849 9.57256C16.9194 9.58531 15.6402 8.32589 15.6317 6.76189C15.6133 5.19506 16.8727 3.92006 18.4424 3.90731ZM9.9466 6.74206C11.5078 6.72789 12.7913 7.98447 12.7969 9.55131C12.8139 11.1181 11.5503 12.3917 9.99194 12.4073C8.42511 12.4172 7.14585 11.1592 7.13594 9.59097C7.12319 8.02839 8.37836 6.75197 9.9466 6.74206ZM7.10902 15.2392C8.67585 15.2293 9.95652 16.4887 9.96502 18.0513C9.97919 19.6153 8.71835 20.896 7.15152 20.9059C5.5861 20.9172 4.31111 19.6592 4.30261 18.0938C4.28702 16.5284 5.54785 15.2548 7.10902 15.2392ZM21.3196 27.3262C21.3494 30.4981 20.0701 32.5934 18.9368 33.8245L18.8716 33.8868C26.3162 33.0496 31.7094 27.7895 27.7484 22.7107C25.8034 25.6106 24.1586 26.1702 21.3196 27.3262Z" fill="#D9D9D9"/>
</svg>
