<svg width="24" height="20" viewBox="0 0 24 20" fill="none" xmlns="http://www.w3.org/2000/svg">
<path d="M10.6373 13.9987V18.3333C10.6373 18.8827 10.1907 19.3333 9.63467 19.3333C9.384 19.3333 9.13467 19.2387 8.944 19.0587C6.57733 16.812 2.35067 12.8027 0.416 10.9667C0.149333 10.7147 0 10.364 0 9.99999C0 9.63466 0.149333 9.28532 0.416 9.03332C2.35067 7.19732 6.57733 3.18666 8.944 0.942656C9.13467 0.761323 9.384 0.666656 9.63467 0.666656C10.1907 0.666656 10.6373 1.11599 10.6373 1.66666V6.00132H22.664C23.372 6.00132 24 6.62799 24 7.33466V12.6653C24 13.372 23.372 13.9987 22.664 13.9987H10.6373Z" fill="#303030"/>
</svg>
