<svg width="32" height="32" viewBox="0 0 32 32" fill="none" xmlns="http://www.w3.org/2000/svg">
<path d="M16 2.66667C23.352 2.66667 29.3333 8.648 29.3333 16C29.3333 23.352 23.352 29.3333 16 29.3333C8.648 29.3333 2.66667 23.352 2.66667 16C2.66667 8.648 8.648 2.66667 16 2.66667ZM16 0C7.164 0 0 7.164 0 16C0 24.836 7.164 32 16 32C24.836 32 32 24.836 32 16C32 7.164 24.836 0 16 0ZM23.7973 16.612C24.0667 16.6627 24.0667 17.056 23.7987 17.108C21.256 17.5893 15.7387 18.5893 15.0693 18.5893C14.1107 18.5893 13.3347 17.8133 13.3347 16.8547C13.3347 16.172 14.3613 9.592 14.8347 6.928C14.88 6.672 15.2507 6.68667 15.292 6.94667L16.6053 15.264L23.7973 16.612Z" fill="#F5F5F5"/>
</svg>
