<svg width="32" height="28" viewBox="0 0 32 28" fill="none" xmlns="http://www.w3.org/2000/svg">
<path d="M9.33333 19.3334H26.6667V20.6667H9.33333V19.3334ZM26.6667 15.3334H9.33333V16.6667H26.6667V15.3334ZM26.6667 7.33335H20V8.66669H26.6667V7.33335ZM26.6667 11.3334H20V12.6667H26.6667V11.3334ZM4 0.666687V23.5987C4 24.6267 2.66667 24.6267 2.66667 23.5987V3.33335H0V24.64C0 26.1267 1.20667 27.3334 2.69333 27.3334H29.304C30.7933 27.3334 32 26.128 32 24.64V0.666687H4ZM29.3333 23.3334H6.66667V3.33335H29.3333V23.3334ZM17.3333 7.33335H9.33333V12.6667H17.3333V7.33335Z" fill="white"/>
</svg>
