<svg width="60" height="60" viewBox="0 0 60 60" fill="none" xmlns="http://www.w3.org/2000/svg">
<path d="M10 54.58C21.4675 55.53 17.36 43.3475 27.97 43.235L32.565 47.07C33.71 60.915 16.7775 64.0025 10 54.58ZM45.1625 36.7925C48.73 31.195 59.78 12.42 59.78 12.42C60.66 10.8625 58.705 9.23751 57.34 10.3875C57.34 10.3875 40.91 24.6725 36.0625 29.2C32.2325 32.78 32.215 34.415 30.975 40.3175L35.175 43.8175C40.7425 41.53 42.345 41.22 45.1625 36.7925ZM15.165 46.4825C16.83 43.6475 19.535 39.04 26.2825 38.3275C27.3675 33.11 27.8 30.0775 32.65 25.5475C36.0825 22.3425 44.995 14.525 50.2025 9.97501C47.7025 4.45501 39.85 -0.0824911 29.7575 8.88074e-06C13.1975 0.137509 -0.132497 13.6625 2.72447e-06 30.23C0.0575027 37.5075 2.7025 44.1575 7.05 49.3175C11.095 50.39 12.99 50.1875 15.165 46.4825ZM32.545 6.89501C35.3 6.88001 37.5575 9.09751 37.585 11.8525C37.595 14.61 35.38 16.875 32.62 16.8925C29.8575 16.915 27.6 14.6925 27.585 11.9325C27.5525 9.16751 29.775 6.91751 32.545 6.89501ZM17.5525 11.8975C20.3075 11.8725 22.5725 14.09 22.5825 16.855C22.6125 19.62 20.3825 21.8675 17.6325 21.895C14.8675 21.9125 12.61 19.6925 12.5925 16.925C12.57 14.1675 14.785 11.915 17.5525 11.8975ZM12.545 26.8925C15.31 26.875 17.57 29.0975 17.585 31.855C17.61 34.615 15.385 36.875 12.62 36.8925C9.8575 36.9125 7.6075 34.6925 7.5925 31.93C7.565 29.1675 9.79 26.92 12.545 26.8925ZM37.6225 48.2225C37.675 53.82 35.4175 57.5175 33.4175 59.69L33.3025 59.8C46.44 58.3225 55.9575 49.04 48.9675 40.0775C45.535 45.195 42.6325 46.1825 37.6225 48.2225Z" fill="#1A6333"/>
</svg>
