<svg width="100" height="100" viewBox="0 0 100 100" fill="none" xmlns="http://www.w3.org/2000/svg">
<path d="M100 50C100 77.6142 77.6142 100 50 100C22.3858 100 0 77.6142 0 50C0 22.3858 22.3858 0 50 0C77.6142 0 100 22.3858 100 50Z" fill="#F4F4F4"/>
<path d="M34.5292 60.3938C30.8459 61.7417 26.7813 59.8208 25.4355 56.1021C24.0875 52.3833 25.9813 48.275 29.6584 46.9271L36.4125 44.4542L41.2834 57.9208L34.5292 60.3938ZM47.6167 67.0021C46.7063 66.6875 45.9209 66.1063 45.348 65.3354L41.9417 60.7479L35.0646 63.2667L40.4855 70.2521C41.0938 71.0354 42.1313 71.3354 43.0625 70.9937L47.6792 69.3063C48.1563 69.1312 48.475 68.6667 48.473 68.1542C48.4688 67.6417 48.148 67.1875 47.6625 67.0187L47.6167 67.0021ZM39.0959 43.4729L43.9667 56.9396C48.4563 56.0708 54.5438 56.1042 62.5 57.775L52.7605 30.8438C47.6021 37.4375 43.0459 41.2688 39.0959 43.4729ZM61.5855 37.0104C63.3688 37.8667 64.8271 39.4042 65.5292 41.4208C66.2355 43.4354 66.0584 45.5458 65.2021 47.3292L68.1334 48.7417C69.3521 46.2083 69.6084 43.2083 68.6063 40.3458C67.6042 37.4813 65.5355 35.2958 63.0042 34.0771L61.5855 37.0104ZM64.0605 31.875C67.1563 33.3646 69.6813 36.0375 70.9063 39.5375C72.1313 43.0375 71.8188 46.7062 70.3292 49.8021L73.3355 51.2521C75.1959 47.3833 75.5834 42.8042 74.0563 38.4333C72.525 34.0646 69.375 30.7292 65.5105 28.8688L64.0605 31.875Z" fill="#165F2F"/>
</svg>
