<svg width="30" height="30" viewBox="0 0 30 30" fill="none" xmlns="http://www.w3.org/2000/svg">
<path d="M26.7575 11.9475C25.245 11.8837 23.17 11.6 21.7863 11.0175C22.7975 6.91375 23.3525 0 19.0413 0C16.715 0 16.1025 2.085 15.5 4.16125C13.565 10.8313 10.5675 12.6812 7.5 13.4125V12.5H0V27.5H7.5V26.37C10.4725 26.655 12.6487 27.45 15.2112 28.5525C16.7825 29.2287 19.0275 30 21.8812 30C25.0537 30 27.25 28.7537 28.1425 25.3925C28.7675 23.0462 30 16.33 30 15.08C30 13.02 28.54 12.0225 26.7575 11.9475ZM5 25H2.5V15H5V25ZM24.87 18.0212C24.87 18.0212 25.1213 18.0338 26.2062 17.9875C27.5588 17.93 27.52 19.8237 26.2113 19.9412L24.01 20.065C23.0925 20.1825 23.19 21.5688 24.1863 21.53C24.1863 21.53 25.0438 21.5088 25.615 21.4788C26.95 21.4088 26.885 23.265 25.665 23.4175C25.135 23.4837 23.4838 23.5613 23.4838 23.5613C22.47 23.6513 22.6012 25.105 23.62 24.9875L24.5837 24.9487C25.6112 24.8562 25.8375 25.98 24.2188 27.025C22.26 28.1263 18.3625 27.1888 16.1987 26.2575C13.4 25.0513 10.6512 23.84 7.5 23.75V16.25C11.58 15.3138 15.41 13.4325 17.9013 4.85875C19.0238 0.99375 20 2.445 20 5.57625C20 8.165 19.3875 10.3088 18.8488 12.4925C20.175 13.1713 23.0625 14.245 26.4987 14.4375C27.8175 14.5113 27.7788 16.2563 26.435 16.4175L24.6925 16.6262C24.6925 16.6262 23.9325 18.015 24.87 18.0212Z" fill="#5F9BCE"/>
</svg>
