<svg width="30" height="30" viewBox="0 0 30 30" fill="none" xmlns="http://www.w3.org/2000/svg">
<path d="M3.2425 18.0525C4.755 18.1163 6.83 18.4 8.21375 18.9825C7.2025 23.0862 6.6475 30 10.9587 30C13.285 30 13.8975 27.915 14.5 25.8387C16.435 19.1687 19.4325 17.3188 22.5 16.5875V17.5H30L30 2.5H22.5V3.63C19.5275 3.345 17.3513 2.55 14.7888 1.4475C13.2175 0.771252 10.9725 0 8.11875 0C4.94625 0 2.75 1.24625 1.8575 4.6075C1.2325 6.95375 0 13.67 0 14.92C0 16.98 1.46 17.9775 3.2425 18.0525ZM25 5H27.5L27.5 15H25L25 5ZM5.13 11.9788C5.13 11.9788 4.87875 11.9662 3.79375 12.0125C2.44125 12.07 2.48 10.1763 3.78875 10.0588L5.99 9.935C6.9075 9.8175 6.81 8.43125 5.81375 8.47C5.81375 8.47 4.95625 8.49125 4.385 8.52125C3.05 8.59125 3.115 6.735 4.335 6.5825C4.865 6.51625 6.51625 6.43875 6.51625 6.43875C7.53 6.34875 7.39875 4.895 6.38 5.0125L5.41625 5.05125C4.38875 5.14375 4.1625 4.02 5.78125 2.975C7.74 1.87375 11.6375 2.81125 13.8013 3.7425C16.6 4.94875 19.3488 6.16 22.5 6.25L22.5 13.75C18.42 14.6862 14.59 16.5675 12.0987 25.1412C10.9762 29.0062 10 27.555 10 24.4237C10 21.835 10.6125 19.6912 11.1512 17.5075C9.825 16.8287 6.9375 15.755 3.50125 15.5625C2.1825 15.4887 2.22125 13.7437 3.565 13.5825L5.3075 13.3738C5.3075 13.3738 6.0675 11.985 5.13 11.9788Z" fill="#5F9BCE"/>
</svg>
